<?xml version="1.0" encoding="UTF-8" standalone="no"?>
<!-- Created with Inkscape (http://www.inkscape.org/) -->

<svg
   width="37.815777mm"
   height="50.691479mm"
   viewBox="0 0 37.815777 50.691479"
   version="1.1"
   id="svg1"
   inkscape:version="1.4.2 (ebf0e940d0, 2025-05-08)"
   sodipodi:docname="rotational.svg"
   xmlns:inkscape="http://www.inkscape.org/namespaces/inkscape"
   xmlns:sodipodi="http://sodipodi.sourceforge.net/DTD/sodipodi-0.dtd"
   xmlns="http://www.w3.org/2000/svg"
   xmlns:svg="http://www.w3.org/2000/svg">
  <sodipodi:namedview
     id="namedview1"
     pagecolor="#ffffff"
     bordercolor="#000000"
     borderopacity="0.25"
     inkscape:showpageshadow="2"
     inkscape:pageopacity="0.0"
     inkscape:pagecheckerboard="0"
     inkscape:deskcolor="#d1d1d1"
     inkscape:document-units="mm"
     inkscape:zoom="1.6792579"
     inkscape:cx="-22.331293"
     inkscape:cy="216.46467"
     inkscape:window-width="3840"
     inkscape:window-height="2094"
     inkscape:window-x="0"
     inkscape:window-y="0"
     inkscape:window-maximized="1"
     inkscape:current-layer="layer1" />
  <defs
     id="defs1">
    <clipPath
       clipPathUnits="userSpaceOnUse"
       id="clipPath342">
      <path
         d="M -4867237.8,3036019.5 13992668,-10801645 23771065,2525722.9 4911160,16363388 Z"
         id="path343"
         style="stroke-width:20835.9" />
    </clipPath>
    <clipPath
       clipPathUnits="userSpaceOnUse"
       id="clipPath341">
      <path
         d="M -2936729.9,-5126342.6 18848374,3393401.7 12827889,18787864 -8957214.5,10268120 Z"
         id="path342"
         style="stroke-width:20835.9" />
    </clipPath>
    <clipPath
       clipPathUnits="userSpaceOnUse"
       id="clipPath340">
      <path
         d="M 1137917.8,-6882996.6 6389204.4,15911761 -9718730.8,19622587 -14970017,-3172170.4 Z"
         id="path341"
         style="stroke-width:20835.9" />
    </clipPath>
    <clipPath
       clipPathUnits="userSpaceOnUse"
       id="clipPath339">
      <path
         d="M -1657562.7,-6497024 14650216,10272989 2799671.5,21796895 -13508107,5026881.5 Z"
         id="path340"
         style="stroke-width:20835.9" />
    </clipPath>
    <clipPath
       clipPathUnits="userSpaceOnUse"
       id="clipPath338">
      <path
         d="M 5832346.9,3382046 H -17559471 V -13147802 H 5832346.9 Z"
         id="path339"
         style="stroke-width:20835.9" />
    </clipPath>
    <clipPath
       clipPathUnits="userSpaceOnUse"
       id="clipPath243">
      <path
         d="m 54.87039,34.3256 h 329.1428 V 281.1827 H 54.87039 Z"
         id="path243" />
    </clipPath>
    <clipPath
       clipPathUnits="userSpaceOnUse"
       id="clipPath337">
      <path
         d="M -454.43971,-277.90275 H 1387.435 V 1023.6596 H -454.43971 Z"
         id="path338"
         style="stroke-width:1.64062" />
    </clipPath>
    <clipPath
       clipPathUnits="userSpaceOnUse"
       id="clipPath336">
      <path
         d="M -442.43974,-49.902722 H 1399.435 V 1251.6596 H -442.43974 Z"
         id="path337"
         style="stroke-width:1.64062" />
    </clipPath>
    <clipPath
       clipPathUnits="userSpaceOnUse"
       id="clipPath334">
      <path
         d="M 5603746.2,-486446.98 H -17788072 V 16043401 H 5603746.2 Z"
         id="path336"
         style="stroke-width:20835.9" />
    </clipPath>
    <clipPath
       clipPathUnits="userSpaceOnUse"
       id="clipPath255">
      <path
         d="m 54.87039,34.3256 h 329.1428 V 281.1827 H 54.87039 Z"
         id="path255" />
    </clipPath>
    <clipPath
       clipPathUnits="userSpaceOnUse"
       id="clipPath332">
      <path
         d="M -5832346.9,-3382046 H 17559471 V 13147802 H -5832346.9 Z"
         id="path334"
         style="stroke-width:20835.9" />
    </clipPath>
    <clipPath
       clipPathUnits="userSpaceOnUse"
       id="clipPath259">
      <path
         d="m 54.87039,34.3256 h 329.1428 V 281.1827 H 54.87039 Z"
         id="path259" />
    </clipPath>
    <clipPath
       clipPathUnits="userSpaceOnUse"
       id="clipPath328">
      <path
         d="m -122.97148,32.368589 h 732.435 V -484.2258 h -732.435 z"
         id="path332"
         style="stroke-width:0.651788" />
    </clipPath>
    <clipPath
       clipPathUnits="userSpaceOnUse"
       id="clipPath326">
      <path
         d="m -137.94048,-30.308191 h 732.435 V 486.2862 h -732.435 z"
         id="path328"
         style="stroke-width:0.651788" />
    </clipPath>
    <clipPath
       clipPathUnits="userSpaceOnUse"
       id="clipPath324">
      <path
         d="m -140.70267,-27.279589 h 732.435 L 763.91323,489.3148 H 31.478231 Z"
         id="path326"
         style="stroke-width:0.651788" />
    </clipPath>
    <clipPath
       clipPathUnits="userSpaceOnUse"
       id="clipPath322">
      <path
         d="m -125.65248,-27.279589 h 732.435 V 489.3148 h -732.435 z"
         id="path324"
         style="stroke-width:0.651788" />
    </clipPath>
    <clipPath
       clipPathUnits="userSpaceOnUse"
       id="clipPath320">
      <path
         d="M -127.83708,-10.125586 H 604.59791 V 506.4688 h -732.43499 z"
         id="path322"
         style="stroke-width:0.651788" />
    </clipPath>
    <clipPath
       clipPathUnits="userSpaceOnUse"
       id="clipPath316">
      <path
         d="m -133.79448,-10.125586 h 732.435 V 506.4688 h -732.435 z"
         id="path320"
         style="stroke-width:0.651788" />
    </clipPath>
    <clipPath
       clipPathUnits="userSpaceOnUse"
       id="clipPath314">
      <path
         d="M -4030.9925,-2432.3556 H 10113.067 V 7539.3461 H -4030.9925 Z"
         id="path316"
         style="stroke-width:12.584" />
    </clipPath>
    <clipPath
       clipPathUnits="userSpaceOnUse"
       id="clipPath312">
      <path
         d="M -3882.2925,-2363.1416 H 10261.767 V 7608.5601 H -3882.2925 Z"
         id="path314"
         style="stroke-width:12.584" />
    </clipPath>
    <clipPath
       clipPathUnits="userSpaceOnUse"
       id="clipPath308">
      <path
         d="M -4020.8924,-2347.2616 H 10123.167 V 7624.4401 H -4020.8924 Z"
         id="path312"
         style="stroke-width:12.584" />
    </clipPath>
    <clipPath
       clipPathUnits="userSpaceOnUse"
       id="clipPath306">
      <path
         d="M -3559.691,-156.53558 H 10583.861 V 9800.5518 H -3559.691 Z"
         id="path308"
         style="stroke-width:12.5745" />
    </clipPath>
    <clipPath
       clipPathUnits="userSpaceOnUse"
       id="clipPath304">
      <path
         d="M -179.17319,-69.654942 H 574.295 V 453.82051 h -753.46819 z"
         id="path306"
         style="stroke-width:0.665468" />
    </clipPath>
    <clipPath
       clipPathUnits="userSpaceOnUse"
       id="clipPath300">
      <path
         d="M -174.48219,-66.527042 H 578.986 V 456.94841 h -753.46819 z"
         id="path304"
         style="stroke-width:0.665468" />
    </clipPath>
    <clipPath
       clipPathUnits="userSpaceOnUse"
       id="clipPath296">
      <path
         d="M -158.4948,-66.527042 H 594.97339 V 456.94841 H -158.4948 Z"
         id="path300"
         style="stroke-width:0.665468" />
    </clipPath>
    <clipPath
       clipPathUnits="userSpaceOnUse"
       id="clipPath194">
      <path
         d="M -180.26619,-65.80714 H 573.202 v 523.47545 h -753.46819 z"
         id="path296"
         style="stroke-width:0.665468" />
    </clipPath>
    <clipPath
       clipPathUnits="userSpaceOnUse"
       id="clipPath190">
      <path
         d="M -166.0167,-66.527042 H 587.45149 V 456.94841 H -166.0167 Z"
         id="path194"
         style="stroke-width:0.665468" />
    </clipPath>
    <clipPath
       clipPathUnits="userSpaceOnUse"
       id="clipPath184">
      <path
         d="M -3296.5786,-2110.5797 H 10847.481 V 7861.122 H -3296.5786 Z"
         id="path190"
         style="stroke-width:12.584" />
    </clipPath>
    <clipPath
       clipPathUnits="userSpaceOnUse"
       id="clipPath160">
      <path
         d="M -3191.1687,-2041.3657 H 10952.891 V 7930.336 H -3191.1687 Z"
         id="path184"
         style="stroke-width:12.584" />
    </clipPath>
    <clipPath
       clipPathUnits="userSpaceOnUse"
       id="clipPath158">
      <path
         d="M -3321.0987,-2025.4857 H 10822.961 V 7946.216 H -3321.0987 Z"
         id="path160"
         style="stroke-width:12.584" />
    </clipPath>
  </defs>
  <g
     inkscape:label="Layer 1"
     inkscape:groupmode="layer"
     id="layer1"
     transform="translate(-110.86042,-91.281251)">
    <path
       id="path232"
       d="M 0.1744092,-0.4630209 1524000,-0.3765611 V 152399.5 H 0.538709 Z"
       style="fill:none;stroke:#000000;stroke-width:9525;stroke-linecap:butt;stroke-linejoin:miter;stroke-miterlimit:8;stroke-dasharray:none;stroke-opacity:1"
       transform="matrix(1.0238232e-5,7.5118734e-6,-7.5118734e-6,1.0238232e-5,132.79187,96.208982)"
       clip-path="url(#clipPath342)" />
    <path
       id="path234"
       d="M -0.1466552,-0.03619686 1295400,-0.02598321 V 304800 H 0.03325688 Z"
       style="fill:none;stroke:#000000;stroke-width:9525;stroke-linecap:butt;stroke-linejoin:miter;stroke-miterlimit:8;stroke-dasharray:none;stroke-opacity:1"
       transform="matrix(1.1826201e-5,-4.6250047e-6,4.6250047e-6,1.1826201e-5,118.59348,137.77315)"
       clip-path="url(#clipPath341)" />
    <path
       id="path236"
       d="M 0.1873641,-0.03359798 1295400,-0.4184726 V 228599.9 L 0.2577276,228600.3 Z"
       style="fill:none;stroke:#000000;stroke-width:9525;stroke-linecap:butt;stroke-linejoin:miter;stroke-miterlimit:8;stroke-dasharray:none;stroke-opacity:1"
       transform="matrix(2.8506978e-6,-1.2374294e-5,1.2374294e-5,2.8506978e-6,142.08213,124.43265)"
       clip-path="url(#clipPath340)" />
    <path
       id="path238"
       d="M 0.1930959,0.1592738 990600.4,0.4216518 990599.9,152400 0.2673398,152400.3 Z"
       style="fill:none;stroke:#000000;stroke-width:9525;stroke-linecap:butt;stroke-linejoin:miter;stroke-miterlimit:8;stroke-dasharray:none;stroke-opacity:1"
       transform="matrix(8.8527923e-6,-9.1037197e-6,9.1037197e-6,8.8527923e-6,133.97491,133.1572)"
       clip-path="url(#clipPath339)" />
    <path
       id="path240"
       d="M 0.281987,-0.08854428 151029.1,2794037"
       style="fill:none;stroke:#000000;stroke-width:12700;stroke-linecap:butt;stroke-linejoin:round;stroke-miterlimit:10;stroke-dasharray:50800, 38100;stroke-dashoffset:0;stroke-opacity:1"
       transform="matrix(-1.2698409e-5,0,0,-1.2698409e-5,134.21529,133.67698)"
       clip-path="url(#clipPath338)" />
    <path
       id="path242"
       d="m 295.0204,204.3127 1.2214,2.8128 1.5175,-2.6648 z"
       style="fill:#000000;fill-opacity:1;fill-rule:evenodd;stroke:none"
       transform="matrix(0.35277776,0,0,-0.35277776,27.772538,170.94439)"
       clip-path="url(#clipPath243)" />
    <path
       id="path244"
       d="m 5.6658309,-14.511975 c 1.0894775,0 2.0123289,0.384522 2.7685544,1.153565 0.7690429,0.769042 1.1535644,1.691894 1.1535644,2.768554 0,1.0958861 -0.3845215,2.0251463 -1.1535644,2.7941892 -0.7562255,0.7562255 -1.6790769,1.1279296 -2.7685544,1.1279296 -1.07666,0 -1.9995115,-0.3717041 -2.7685544,-1.1279296 -0.7690429,-0.7690429 -1.1535644,-1.6983031 -1.1535644,-2.7941892 0,-1.07666 0.3717041,-1.999512 1.1279296,-2.768554 0.7690429,-0.769043 1.6983031,-1.153565 2.7941892,-1.153565 z m 0,0"
       style="fill:#000000;fill-opacity:1;fill-rule:nonzero;stroke:none"
       aria-label="•"
       transform="matrix(0.16126986,0,0,0.16126986,133.44119,135.54772)"
       clip-path="url(#clipPath337)" />
    <path
       id="path248"
       d="m 5.6623207,-14.507518 c 1.0894774,0 2.0123289,0.384522 2.7685544,1.153565 0.7690429,0.769042 1.1535643,1.691894 1.1535643,2.768554 0,1.0958861 -0.3845214,2.0251463 -1.1535643,2.7941892 -0.7562255,0.7562255 -1.679077,1.1279296 -2.7685544,1.1279296 -1.0766601,0 -1.9995116,-0.3717041 -2.7685545,-1.1279296 -0.7690429,-0.7690429 -1.1535643,-1.6983031 -1.1535643,-2.7941892 0,-1.07666 0.3717041,-1.999512 1.1279296,-2.768554 0.7690429,-0.769043 1.698303,-1.153565 2.7941892,-1.153565 z m 0,0"
       style="fill:#000000;fill-opacity:1;fill-rule:nonzero;stroke:none"
       aria-label="•"
       transform="matrix(0.16126986,0,0,0.16126986,131.50596,98.778184)"
       clip-path="url(#clipPath336)" />
    <path
       id="path252"
       d="M 0.3171432,0.08701843 889346.2,148224.4"
       style="fill:none;stroke:#000000;stroke-width:9525;stroke-linecap:butt;stroke-linejoin:round;stroke-miterlimit:10;stroke-dasharray:none;stroke-opacity:1"
       transform="matrix(-1.2698409e-5,0,0,1.2698409e-5,131.31243,96.907482)"
       clip-path="url(#clipPath334)" />
    <path
       id="path254"
       d="m 263.0648,206.1864 -2.4801,-1.8037 2.9309,-0.9018 z"
       style="fill:#000000;fill-opacity:1;fill-rule:evenodd;stroke:none"
       transform="matrix(0.35277776,0,0,-0.35277776,27.772538,170.94439)"
       clip-path="url(#clipPath255)" />
    <path
       id="path256"
       d="M -0.281987,0.08854428 361165.3,288932.9"
       style="fill:none;stroke:#000000;stroke-width:9525;stroke-linecap:butt;stroke-linejoin:round;stroke-miterlimit:10;stroke-dasharray:none;stroke-opacity:1"
       transform="matrix(1.2698409e-5,0,0,1.2698409e-5,134.21529,133.67698)"
       clip-path="url(#clipPath332)" />
    <path
       id="path258"
       d="m 314.1567,97.45281 1.2851,-2.78436 -2.9985,0.64251 z"
       style="fill:#000000;fill-opacity:1;fill-rule:evenodd;stroke:none"
       transform="matrix(0.35277776,0,0,-0.35277776,27.772538,170.94439)"
       clip-path="url(#clipPath259)" />
    <path
       id="path260"
       d="M 2.060383,17.62501 H 19.03999"
       style="fill:none;stroke:#000000;stroke-width:0.52131;stroke-linecap:butt;stroke-linejoin:round;stroke-miterlimit:10;stroke-dasharray:none;stroke-opacity:1"
       transform="matrix(0.40554981,0,0,-0.40632028,110.02483,103.88239)"
       clip-path="url(#clipPath328)" />
    <path
       id="path262"
       d="m 1.5904084,-4.5183198 c 0.094293,0 0.175844,0.035611 0.2446524,0.1017452 0.06626,0.068678 0.1019386,0.1500742 0.1019386,0.2441885 0,0.096658 -0.035678,0.1780542 -0.1019386,0.2441886 -0.068808,0.068678 -0.1503593,0.1017452 -0.2446524,0.1017452 -0.096842,0 -0.1783924,-0.033067 -0.2446524,-0.1017452 -0.068809,-0.066134 -0.1019385,-0.1475306 -0.1019385,-0.2441886 0,-0.094114 0.030582,-0.1755105 0.091745,-0.2441885 0.06626,-0.066134 0.1529078,-0.1017452 0.2548459,-0.1017452 z m 0.040775,1.383735 -0.68298805,2.42153624 c -0.0484208,0.17042325 -0.071357,0.26962484 -0.071357,0.29506114 0,0.0406981 0.0101939,0.0763089 0.0305816,0.10174523 0.0203877,0.020349 0.0458723,0.0305236 0.0815508,0.0305236 0.0331302,0 0.0739056,-0.020349 0.12232625,-0.0610471 0.1274231,-0.10174522 0.2599432,-0.24673216 0.3975602,-0.43750445 l 0.1223262,0.0712216 c -0.1580047,0.24418853 -0.341494,0.44767898 -0.550468,0.61047133 -0.15800469,0.12209426 -0.30581554,0.1831414 -0.44852946,0.1831414 -0.0968416,0 -0.17329548,-0.02797994 -0.23445859,-0.0813961804 C 0.33656465,-0.06187914 0.30598309,-0.1331008 0.30598309,-0.21449697 c 0,-0.0864834 0.0254846,-0.22892675 0.0815508,-0.42732993 l 0.45872332,-1.5567019 c 0.06626,-0.2492758 0.10193852,-0.4095245 0.10193852,-0.4782025 0,-0.045785 -0.0178392,-0.086483 -0.0509693,-0.1220943 -0.0356785,-0.033067 -0.0815508,-0.050873 -0.14271392,-0.050873 -0.0560662,0 -0.16055317,0.015262 -0.31600941,0.040698 v -0.1322688 z m 0,0"
       style="fill:#000000;fill-opacity:1;fill-rule:nonzero;stroke:none"
       aria-label="i"
       transform="matrix(0.40554981,0,0,0.40632028,116.0955,103.04521)"
       clip-path="url(#clipPath326)" />
    <path
       id="path264"
       d="m 3.472989,-5.2695548 0.1325743,5.01603942 C 4.0320603,-0.33491156 4.3720317,-0.59944913 4.6254775,-1.0471281 4.8746792,-1.4998943 4.9990825,-2.0671239 4.9969868,-2.7462733 4.9966121,-3.4584898 4.8551376,-4.0435249 4.5734163,-4.5064656 4.287451,-4.9744936 3.9197924,-5.2288567 3.472989,-5.2695548 Z m -0.6218249,0 c -0.4502556,0.040698 -0.8148537,0.2925175 -1.094642,0.7529147 -0.281489,0.4629407 -0.4211984,1.053063 -0.4191281,1.7703668 -4.476e-4,0.6715185 0.1274469,1.2387481 0.3828357,1.6991452 0.2587903,0.45530986 0.5992585,0.71984743 1.0188562,0.79361272 z m 0.6186576,-0.3459337 c 0.7662243,0.020349 1.3853176,0.2950611 1.8547316,0.8241363 0.4651699,0.5239879 0.7000236,1.2056808 0.7020125,2.0450789 -0.00309,0.8088745 -0.222698,1.4727621 -0.6605318,1.99420634 C 4.9290481,-0.22807908 4.3427083,0.0618948 3.6087103,0.12294193 l 0.00176,2.45205987 H 2.7439962 L 2.7422329,0.12294193 C 2.0100118,0.06698206 1.4206573,-0.21790456 0.97587509,-0.74189244 0.52684882,-1.2709676 0.30472731,-1.9373988 0.30781498,-2.7462733 0.30582608,-3.5856714 0.53988961,-4.2673643 1.012554,-4.7913522 1.4809744,-5.3204274 2.100434,-5.5951395 2.8683844,-5.6154885 l 0.069533,-2.3604891 h 0.479111 z m 0,0"
       style="fill:#000000;fill-opacity:1;fill-rule:nonzero;stroke:none"
       aria-label="φ"
       transform="matrix(0.40554981,0,-0.13516974,0.40632028,113.52833,101.81463)"
       clip-path="url(#clipPath324)" />
    <path
       id="path266"
       d="m 3.1086041,-4.2521026 c -0.4281418,0 -0.7798297,0.2492758 -1.0499668,0.7427401 -0.2650401,0.4883771 -0.3975602,1.1395465 -0.3975602,1.9535083 0,0.468028 0.084099,0.82922354 0.2548463,1.07849933 0.175844,0.24418853 0.4306902,0.3662828 0.7645389,0.3662828 0.4204964,0 0.7696358,-0.24673216 1.0499667,-0.74274012 0.2777825,-0.49346431 0.4179479,-1.11919741 0.4179479,-1.87211201 0,-0.4934644 -0.089196,-0.8699217 -0.2650401,-1.129372 C 3.7049444,-4.1198338 3.4475496,-4.2521026 3.1086041,-4.2521026 Z m 1.2436499,0.7630892 c 0.053518,-0.1882287 0.091745,-0.4298736 0.1121323,-0.7223911 0.025485,-0.2899739 0.040775,-0.6511694 0.040775,-1.0784993 0,-0.6842366 -0.06626,-1.1929627 -0.1936832,-1.5261783 C 4.181507,-7.154385 3.9878238,-7.3248082 3.730429,-7.3248082 c -0.1580047,0 -0.3618817,0.1424433 -0.6116311,0.4273299 -0.2446524,0.2797994 -0.4689172,0.4171554 -0.6727942,0.4171554 -0.137617,0 -0.2446524,-0.033067 -0.3262033,-0.1017452 -0.081551,-0.066134 -0.1223262,-0.1627924 -0.1223262,-0.2848866 0,-0.2289268 0.1172293,-0.4298736 0.3567848,-0.6002968 0.2370071,-0.1678797 0.5300803,-0.2543631 0.8766713,-0.2543631 0.6371157,0 1.1417114,0.2925175 1.50869,0.8750089 0.3720756,0.585035 0.5606619,1.3786477 0.5606619,2.3808382 0,1.3226878 -0.2624917,2.4266235 -0.7849266,3.3067197 -0.517338,0.88263974 -1.1570022,1.32268782 -1.9164441,1.32268782 -0.550468,0 -0.996449,-0.20603407 -1.3353946,-0.62064584 C 0.92202287,-0.87670486 0.75382432,-1.4337599 0.75382432,-2.1256274 c 0,-0.6842367 0.21407088,-1.2718153 0.64221268,-1.7601924 0.4281417,-0.488377 0.9378343,-0.7325656 1.5290777,-0.7325656 0.346591,0 0.6371158,0.096658 0.8766713,0.2848867 0.237007,0.1831414 0.4204964,0.4654843 0.550468,0.8444853 z m 0,0"
       style="fill:#000000;fill-opacity:1;fill-rule:nonzero;stroke:none"
       aria-label="∂"
       transform="matrix(0.40554981,0,0,0.40632028,111.11211,101.81463)"
       clip-path="url(#clipPath322)" />
    <path
       id="path268"
       d="m 3.1080368,-4.2523468 c -0.4281418,0 -0.7798297,0.2492758 -1.0499667,0.7427401 -0.2650402,0.4883771 -0.3975602,1.1395465 -0.3975602,1.9535083 0,0.468028 0.084099,0.8292235 0.2548462,1.0784993 0.175844,0.24418853 0.4306903,0.36628279 0.7645389,0.36628279 0.4204964,0 0.7696358,-0.24673216 1.0499668,-0.74274011 0.2777824,-0.49346428 0.4179479,-1.11919748 0.4179479,-1.87211208 0,-0.4934643 -0.089196,-0.8699216 -0.2650402,-1.1293719 C 3.7043771,-4.120078 3.4469824,-4.2523468 3.1080368,-4.2523468 Z m 1.2436499,0.7630892 c 0.053518,-0.1882287 0.091745,-0.4298736 0.1121324,-0.7223911 0.025485,-0.2899739 0.040775,-0.6511694 0.040775,-1.0784994 0,-0.6842366 -0.06626,-1.1929627 -0.1936832,-1.5261783 -0.1299716,-0.3383028 -0.3236548,-0.5087261 -0.5810495,-0.5087261 -0.1580048,0 -0.3618818,0.1424433 -0.6116312,0.42733 -0.2446524,0.2797993 -0.4689171,0.4171554 -0.6727942,0.4171554 -0.137617,0 -0.2446524,-0.033067 -0.3262032,-0.1017453 -0.081551,-0.066134 -0.1223262,-0.1627923 -0.1223262,-0.2848866 0,-0.2289267 0.1172293,-0.4298735 0.3567848,-0.6002968 0.237007,-0.1678796 0.5300803,-0.254363 0.8766712,-0.254363 0.6371157,0 1.1417114,0.2925175 1.5086901,0.8750089 0.3720756,0.585035 0.5606618,1.3786477 0.5606618,2.3808381 0,1.3226879 -0.2624917,2.4266236 -0.7849266,3.3067197 -0.5173379,0.88263981 -1.1570021,1.32268789 -1.9164441,1.32268789 -0.550468,0 -0.996449,-0.20603407 -1.3353946,-0.62064585 C 0.9214556,-0.8769491 0.75325705,-1.4340042 0.75325705,-2.1258717 c 0,-0.6842366 0.21407089,-1.2718152 0.64221265,-1.7601923 0.4281418,-0.4883771 0.9378344,-0.7325656 1.5290778,-0.7325656 0.3465909,0 0.6371157,0.096658 0.8766712,0.2848866 0.2370071,0.1831414 0.4204964,0.4654844 0.550468,0.8444854 z m 0,0"
       style="fill:#000000;fill-opacity:1;fill-rule:nonzero;stroke:none"
       aria-label="∂"
       transform="matrix(0.40554981,0,0,0.40632028,111.99807,94.844611)"
       clip-path="url(#clipPath320)" />
    <path
       id="path270"
       d="M 5.1171319,-2.9805315 H 2.0691703 c 0.03313,0.7401964 0.2268132,1.3226878 0.5810495,1.7500178 0.2777825,0.33321556 0.6065342,0.49855154 0.9888036,0.49855154 0.2370071,0 0.451078,-0.0661344 0.6422127,-0.20349044 0.1962316,-0.1348124 0.407754,-0.3713701 0.6320188,-0.7122165 l 0.203877,0.1220942 C 4.8113164,-0.90747266 4.4749193,-0.46996821 4.1079406,-0.21306153 3.7460589,0.03621426 3.3281109,0.16339579 2.8540968,0.16339579 c -0.8307989,0 -1.4551723,-0.31541019 -1.87566868,-0.94623056 C 0.63693409,-1.2915609 0.46873553,-1.9249249 0.46873553,-2.6854704 c 0,-0.9284251 0.24720091,-1.6635344 0.74415117,-2.2078713 0.5020472,-0.5494242 1.0907421,-0.8241363 1.7635364,-0.8241363 0.5632103,0 1.0525151,0.2314704 1.4679146,0.6918675 0.412851,0.4629408 0.6371157,1.1446338 0.6727942,2.045079 z M 3.6492173,-3.3773379 c 0,-0.6359076 -0.035678,-1.0734121 -0.1019385,-1.3125133 -0.068808,-0.2365577 -0.1783925,-0.4171555 -0.3262033,-0.5392497 -0.081551,-0.066134 -0.1911347,-0.1017452 -0.3262033,-0.1017452 -0.2115224,0 -0.3822694,0.099202 -0.5096925,0.2950611 -0.2319102,0.3535646 -0.346591,0.8393981 -0.346591,1.4549567 v 0.2034904 z m 0,0"
       style="fill:#000000;fill-opacity:1;fill-rule:nonzero;stroke:none"
       aria-label="e"
       transform="matrix(0.40554981,0,0,0.40632028,114.41409,94.844611)"
       clip-path="url(#clipPath316)" />
    <path
       id="path272"
       d="m 36.199039,-102.70109 c 2.066963,0 3.937072,0.78559 5.5119,2.35676 1.574829,1.571168 2.362243,3.486034 2.362243,5.695494 0,2.111261 -0.787414,3.927928 -2.362243,5.4991 -1.574828,1.571172 -3.444937,2.356757 -5.5119,2.356757 -2.263816,0 -4.133925,-0.785585 -5.708753,-2.356757 -1.476402,-1.571172 -2.16539,-3.387839 -2.16539,-5.4991 0,-2.20946 0.688988,-4.124326 2.16539,-5.695494 1.574828,-1.57117 3.444937,-2.35676 5.708753,-2.35676 z m 0.984268,31.42343 -15.748285,55.187401 c -1.082695,3.829731 -1.574829,6.039191 -1.574829,6.6774795 0,0.9328831 0.246067,1.6693698 0.787414,2.1603609 0.492134,0.5400902 1.082695,0.7855858 1.771682,0.7855858 0.787415,0 1.771683,-0.441892 2.952804,-1.3747751 3.002017,-2.3567571 6.004034,-5.6954971 9.055264,-10.0162191 l 2.75595,1.767568 c -3.543364,5.499101 -7.775716,10.1144173 -12.598628,13.7477515 -3.691005,2.84774848 -7.086729,4.3207218 -10.236386,4.3207218 -2.263816,0 -4.084711,-0.6873875 -5.5118998,-1.96396443 C 7.5076317,-1.262327 6.8678576,-2.9316968 6.8678576,-4.8956612 c 0,-1.9639645 0.6397741,-5.1554068 1.9685356,-9.6234258 l 10.2363858,-35.35136 c 1.673255,-5.744596 2.559096,-9.328831 2.559096,-10.801805 0,-1.178378 -0.393707,-2.16036 -1.181121,-2.945946 -0.787415,-0.785586 -1.919323,-1.178379 -3.346511,-1.178379 -1.181121,0 -3.543364,0.343694 -7.086728,0.981982 v -3.142343 z m 0,0"
       style="fill:#000000;fill-opacity:1;fill-rule:nonzero;stroke:none"
       aria-label="i"
       transform="matrix(0.02100096,0,0,0.02104984,144.80849,141.93109)"
       clip-path="url(#clipPath314)" />
    <path
       id="path274"
       d="M 79.13946,-18.659169 C 63.637241,-5.0096162 49.808278,1.7660611 37.603357,1.7660611 c -7.234369,0 -13.287616,-2.35675733 -18.110528,-7.070272 C 14.768343,-10.017726 12.4061,-15.958718 12.4061,-23.176287 c 0,-9.525228 4.133925,-18.166672 12.401775,-25.924331 8.366277,-7.708561 26.476805,-17.970275 54.331585,-30.834242 v -12.765769 c 0,-9.525231 -0.541348,-15.515321 -1.574829,-17.872081 -1.082694,-2.45495 -3.05123,-4.61531 -5.905607,-6.48108 -2.90359,-1.96396 -6.10246,-2.94594 -9.645825,-2.94594 -5.905607,0 -10.777733,1.32567 -14.567164,3.92792 -2.362243,1.71847 -3.543364,3.63334 -3.543364,5.6955 0,1.96397 1.279548,4.32072 3.937071,7.07027 3.395724,3.927932 5.118193,7.659465 5.118193,11.194601 0,4.468019 -1.722469,8.24865 -5.118193,11.390993 -3.297297,3.044145 -7.578862,4.517119 -12.795482,4.517119 -5.65954,0 -10.433239,-1.66937 -14.37031,-5.106308 -3.838645,-3.387839 -5.708754,-7.364867 -5.708754,-11.980183 0,-6.530182 2.559097,-12.765772 7.67729,-18.657662 5.216619,-5.89189 12.450988,-10.40901 21.653892,-13.55136 9.153691,-3.14234 18.701089,-4.71351 28.543768,-4.71351 12.057281,0 21.555465,2.55315 28.543764,7.65946 6.93909,5.10631 11.46672,10.60541 13.5829,16.4973 1.27955,3.82973 1.96853,12.520276 1.96853,26.12073 v 49.099111 c 0,5.793695 0.19686,9.42703 0.59057,10.998201 0.3937,1.472974 1.03348,2.553154 1.96853,3.33874 0.88584,0.687387 1.96854,0.981982 3.14966,0.981982 2.36224,0 4.7737,-1.66937 7.28358,-5.106308 l 3.93707,3.33874 c -4.47842,6.677479 -9.15369,11.5382911 -13.9766,14.5333369 -4.87213,2.99504576 -10.33481,4.5171182 -16.33885,4.5171182 -7.234366,0 -12.893907,-1.71846888 -16.929405,-5.1063076 -4.084711,-3.3878386 -6.594594,-8.4941465 -7.480435,-15.3189225 z m 0,-9.819822 v -42.421632 c -10.925373,6.431983 -19.045583,13.305859 -24.409843,20.621626 -3.543364,4.860812 -5.315046,9.770723 -5.315046,14.729734 0,4.222523 1.476402,7.855857 4.527632,10.998201 2.214603,2.356757 5.36426,3.535136 9.448971,3.535136 4.576846,0 9.842679,-2.454956 15.748286,-7.463065 z m 0,0"
       style="fill:#000000;fill-opacity:1;fill-rule:nonzero;stroke:none"
       aria-label="a"
       transform="matrix(0.02100096,0,0,0.02104984,141.68565,140.47414)"
       clip-path="url(#clipPath312)" />
    <path
       id="path276"
       d="m 27.74559,-181.05804 c 0.885841,-5.4991 2.411457,-9.47613 4.527632,-11.98018 2.066963,-2.45496 4.970553,-3.73154 8.661557,-3.73154 2.75595,0 5.019766,0.93289 6.889875,2.74955 1.968536,1.71847 2.952804,4.02613 2.952804,6.87388 0,1.47297 -0.29528,3.09324 -0.787414,4.90991 -0.393708,1.86577 -0.984268,3.63333 -1.771683,5.3027 l -25.787817,57.54416 h -4.724486 z m 0,0"
       style="fill:#000000;fill-opacity:1;fill-rule:nonzero;stroke:none"
       aria-label="!"
       transform="matrix(0.02100096,0,0,0.02104984,144.59638,140.13987)"
       clip-path="url(#clipPath308)" />
    <path
       id="path278"
       d="M 116.51578,-67.845448 H 47.028971 c 0.787386,16.86534 5.216432,30.151697 13.385561,39.810046 6.299088,7.452127 13.779255,11.178191 22.4405,11.178191 5.511702,0 10.432864,-1.470815 14.763487,-4.510498 4.429051,-2.990657 9.251781,-8.43267 14.369791,-16.277014 l 4.52747,2.941629 c -6.84041,14.021765 -14.46821,23.925249 -22.834191,29.8085073 -8.267552,5.73617661 -17.863819,8.6287785 -28.739588,8.6287785 -18.79884,0 -33.020999,-7.157964 -42.715688,-21.5719468 -7.775437,-11.619434 -11.613943,-26.082444 -11.613943,-43.340001 0,-21.179729 5.708548,-37.947014 17.125644,-50.399914 11.417097,-12.55095 24.802658,-18.82642 40.156685,-18.82642 12.844233,0 23.916849,5.29493 33.267061,15.88479 9.44863,10.49181 14.56664,26.033421 15.35402,46.673852 z m -33.267055,-9.020996 c 0,-14.512037 -0.787386,-24.415526 -2.362158,-29.808506 -1.574772,-5.49104 -4.084564,-9.65835 -7.480166,-12.55095 -1.870042,-1.56887 -4.330623,-2.35331 -7.480167,-2.35331 -4.724316,0 -8.612034,2.30428 -11.613943,6.86381 -5.265644,8.1385 -7.87386,19.169612 -7.87386,33.14235 v 4.706606 z m 0,0"
       style="fill:#000000;fill-opacity:1;fill-rule:nonzero;stroke:none"
       aria-label="e"
       transform="matrix(0.02100172,0,0,0.02108074,134.91339,94.030266)"
       clip-path="url(#clipPath306)" />
    <path
       id="path280"
       d="m 1.6365269,-4.639786 c 0.097001,0 0.1808936,0.036085 0.251678,0.1031005 0.068163,0.069593 0.1048659,0.1520731 0.1048659,0.2474411 0,0.1031005 -0.036703,0.1907359 -0.1048659,0.2577512 -0.070784,0.069593 -0.1546771,0.1031004 -0.251678,0.1031004 -0.099623,0 -0.1835153,-0.033508 -0.2516781,-0.1031004 -0.070785,-0.067015 -0.1048659,-0.1546507 -0.1048659,-0.2577512 0,-0.095368 0.03146,-0.1778483 0.094379,-0.2474411 0.068163,-0.067015 0.1572988,-0.1031005 0.262165,-0.1031005 z m 0.041946,1.4124764 -0.70260128,2.49503141 c -0.0498113,0.17269329 -0.0734061,0.27579376 -0.0734061,0.30930141 0,0.0360852 0.0104866,0.0670153 0.0314598,0.0927904 0.0209732,0.0206201 0.0471896,0.0309301 0.0838927,0.0309301 0.034081,0 0.076028,-0.0154651 0.125839,-0.0515502 0.1310823,-0.10825549 0.267408,-0.26032869 0.4089769,-0.45364207 l 0.125839,0.0721703 C 1.5159311,-0.48483706 1.3271726,-0.2734811 1.1121975,-0.10336532 0.94965545,0.02035524 0.79759995,0.08221553 0.65078773,0.08221553 0.55116513,0.08221553 0.47251576,0.0538629 0.40959624,-2.648503e-4 0.34667672,-0.06212513 0.31521696,-0.13429546 0.31521696,-0.21677584 c 0,-0.0876354 0.0262165,-0.23713108 0.0838927,-0.44333202 L 0.87100605,-2.2581652 c 0.0681628,-0.2603286 0.10486587,-0.4252894 0.10486587,-0.4948822 0,-0.046395 -0.0183515,-0.087635 -0.0524329,-0.1237206 -0.0367031,-0.033508 -0.0838927,-0.05155 -0.14681222,-0.05155 -0.0576762,0 -0.16516373,0.015465 -0.32508418,0.04124 v -0.1443407 z m 0,0"
       style="fill:#000000;fill-opacity:1;fill-rule:nonzero;stroke:none"
       aria-label="i"
       transform="matrix(0.39422882,0,0,0.40097921,130.789,118.66056)"
       clip-path="url(#clipPath304)" />
    <path
       id="path282"
       d="m 2.7883039,-5.7106527 v 1.2887559 C 3.165821,-5.012147 3.4961485,-5.4039288 3.7845296,-5.5972422 4.0702891,-5.787978 4.345562,-5.8859235 4.61297,-5.8859235 c 0.2228399,0 0.4011119,0.07217 0.5348159,0.216511 0.1389473,0.1391857 0.2097317,0.3350765 0.2097317,0.5876727 0,0.2757938 -0.068163,0.4897272 -0.1992451,0.6392229 -0.1258391,0.1520732 -0.2831379,0.2268211 -0.4718964,0.2268211 -0.2175967,0 -0.4063553,-0.067015 -0.5662757,-0.206201 -0.1625421,-0.1366081 -0.2569214,-0.216511 -0.2831378,-0.2371311 -0.036703,-0.02062 -0.081271,-0.03093 -0.1363257,-0.03093 -0.1205957,0 -0.2307049,0.046395 -0.3355707,0.1340306 -0.1677854,0.1391856 -0.2936245,0.3350765 -0.3775171,0.5876727 -0.133704,0.3995143 -0.1992452,0.8351138 -0.1992452,1.309376 v 1.319686 l 0.010487,0.34023152 c 0,0.23455357 0.013108,0.38147174 0.041946,0.44333203 0.04719,0.110833 0.1179741,0.19331338 0.2097318,0.24744113 0.097001,0.0489727 0.2621646,0.0799029 0.4928695,0.0927904 V 0.00111339 H 0.46028169 V -0.2153976 C 0.70409483,-0.23601769 0.86925856,-0.303033 0.95315126,-0.42159854 1.0422872,-0.53758657 1.0894769,-0.84431047 1.0894769,-1.3391927 v -3.1651845 c 0,-0.3221889 -0.01573,-0.5283899 -0.041946,-0.6186028 -0.041946,-0.115988 -0.10224418,-0.1984684 -0.17827194,-0.2474411 -0.0786494,-0.054128 -0.21497502,-0.09279 -0.40897687,-0.1134105 v -0.2268211 z m 0,0"
       style="fill:#000000;fill-opacity:1;fill-rule:nonzero;stroke:none"
       aria-label="r"
       transform="matrix(0.39422882,0,0,0.40097921,128.93968,117.40634)"
       clip-path="url(#clipPath300)" />
    <path
       id="path284"
       d="M 5.2637371,-3.0609706 H 2.1282477 c 0.034081,0.7577885 0.2333266,1.3557712 0.5977355,1.7939482 0.2857595,0.33765404 0.6239519,0.50519231 1.0171989,0.50519231 0.2438131,0 0.4640314,-0.0644378 0.6606549,-0.1958909 C 4.6057038,-1.0943291 4.8233005,-1.3417702 5.0540054,-1.7000444 l 0.2097317,0.1340306 C 4.9491395,-0.93194587 4.6030822,-0.48345882 4.225565,-0.2153976 3.8532912,0.04493109 3.4233412,0.17638419 2.9357149,0.17638419 2.0810581,0.17638419 1.4387547,-0.1483823 1.006183,-0.80307028 0.65488232,-1.3314602 0.48185364,-1.9835707 0.48185364,-2.7619792 c 0,-0.9536794 0.25429973,-1.7140453 0.76552086,-2.2785204 0.5164644,-0.5618976 1.1220647,-0.8454239 1.8141794,-0.8454239 0.5793839,0 1.0827401,0.2371311 1.5100685,0.7113933 0.4247068,0.4742621 0.6554117,1.1805004 0.6921147,2.1135596 z M 3.7536687,-3.4733725 c 0,-0.6521104 -0.036703,-1.09802 -0.1048659,-1.3403061 C 3.5780188,-5.0611197 3.4652875,-5.2492781 3.313232,-5.3807312 3.229339,-5.4477462 3.1166085,-5.4838316 2.9776612,-5.4838316 c -0.2175966,0 -0.393247,0.1031004 -0.5243293,0.3093014 -0.2385698,0.3660066 -0.3565439,0.8634664 -0.3565439,1.4949568 v 0.2062009 z m 0,0"
       style="fill:#000000;fill-opacity:1;fill-rule:nonzero;stroke:none"
       aria-label="e"
       transform="matrix(0.39422882,0,0,0.40097921,122.63698,117.40634)"
       clip-path="url(#clipPath296)" />
    <path
       id="path286"
       d="m 1.2487498,-8.1868673 c 0.041946,-0.2474411 0.1101092,-0.4252894 0.2097317,-0.5361224 0.097001,-0.115988 0.230705,-0.1752708 0.3984903,-0.1752708 0.1258391,0 0.2254617,0.04124 0.304111,0.1237206 0.083893,0.08248 0.1258391,0.1907358 0.1258391,0.3196114 0,0.06186 -0.010487,0.1340306 -0.03146,0.216511 -0.01573,0.08248 -0.041946,0.1623833 -0.083893,0.2371311 l -1.153524,2.6084419 H 0.7978266 Z m 0,0"
       style="fill:#000000;fill-opacity:1;fill-rule:nonzero;stroke:none"
       aria-label="!"
       transform="matrix(0.39422882,0,0,0.40097921,131.21989,117.11767)"
       clip-path="url(#clipPath194)" />
    <path
       id="path288"
       d="M 6.3224866,-2.5248481 H 0.53389079 V -3.380582 H 6.3224866 Z m 0,0"
       style="fill:#000000;fill-opacity:1;fill-rule:nonzero;stroke:none"
       aria-label="−"
       transform="matrix(0.39422882,0,0,0.40097921,125.60233,117.40634)"
       clip-path="url(#clipPath190)" />
    <path
       id="path290"
       d="m 36.201386,-102.72073 c 2.066962,0 3.937071,0.78559 5.5119,2.35676 1.574828,1.571169 2.362242,3.486034 2.362242,5.695494 0,2.111262 -0.787414,3.927929 -2.362242,5.4991 -1.574829,1.571172 -3.444938,2.356758 -5.5119,2.356758 -2.263816,0 -4.133925,-0.785586 -5.708754,-2.356758 -1.476401,-1.571171 -2.165389,-3.387838 -2.165389,-5.4991 0,-2.20946 0.688988,-4.124325 2.165389,-5.695494 1.574829,-1.57117 3.444938,-2.35676 5.708754,-2.35676 z m 0.984268,31.423431 -15.748286,55.187401 c -1.082694,3.82973 -1.574828,6.03919 -1.574828,6.6774789 0,0.9328831 0.246067,1.6693698 0.787414,2.1603609 0.492134,0.5400902 1.082695,0.7855857 1.771682,0.7855857 0.787414,0 1.771682,-0.441892 2.952804,-1.3747751 3.002016,-2.3567574 6.004033,-5.6954964 9.055264,-10.0162184 l 2.75595,1.767568 c -3.543365,5.4991 -7.775716,10.1144167 -12.598629,13.7477509 -3.691004,2.84774844 -7.086728,4.3207218 -10.236385,4.3207218 -2.263816,0 -4.084712,-0.6873876 -5.5119002,-1.96396448 C 7.5099782,-1.2819667 6.8702041,-2.9513364 6.8702041,-4.9153009 c 0,-1.9639644 0.6397741,-5.1554071 1.9685357,-9.6234261 l 10.2363852,-35.35136 c 1.673256,-5.744596 2.559097,-9.328831 2.559097,-10.801804 0,-1.178379 -0.393707,-2.160361 -1.181122,-2.945947 -0.787414,-0.785586 -1.919322,-1.178379 -3.34651,-1.178379 -1.181122,0 -3.543365,0.343694 -7.086729,0.981983 v -3.142343 z m 0,0"
       style="fill:#000000;fill-opacity:1;fill-rule:nonzero;stroke:none"
       aria-label="i"
       transform="matrix(0.02100096,0,0,0.02104984,129.38509,135.15775)"
       clip-path="url(#clipPath184)" />
    <path
       id="path292"
       d="m 61.836477,-126.50046 v 28.673884 c 8.366277,-13.060364 15.748286,-21.701804 22.0476,-25.924334 6.299314,-4.32072 12.401775,-6.48108 18.307383,-6.48108 4.97055,0 8.95684,1.57117 12.00807,4.71352 3.00201,3.14234 4.52763,7.56126 4.52763,13.15856 0,6.03919 -1.4764,10.7527 -4.33078,14.140541 -2.90359,3.289641 -6.44695,4.909911 -10.63009,4.909911 -4.724488,0 -8.858413,-1.472973 -12.401777,-4.517118 -3.543365,-3.142344 -5.659541,-4.909914 -6.299315,-5.302704 -0.935054,-0.49099 -1.968535,-0.78559 -3.149657,-0.78559 -2.657523,0 -5.068979,0.98199 -7.283582,2.94595 -3.838644,3.142344 -6.643808,7.561264 -8.464703,13.158563 -2.90359,8.788741 -4.330779,18.461265 -4.330779,29.066673 v 29.066674 l 0.196854,7.463065 c 0,5.106308 0.246067,8.395948 0.787414,9.819822 1.181122,2.5040551 2.805163,4.3207222 4.921339,5.4991009 2.066963,1.0801804 5.610327,1.7184689 10.630093,1.9639644 v 4.90991116 H 10.260842 V -4.9310577 c 5.36426,-0.3927928 9.055265,-1.8166671 11.0238,-4.3207217 1.968536,-2.6022526 2.952804,-9.4270296 2.952804,-20.4252306 v -69.917134 c 0,-7.168466 -0.393707,-11.832886 -1.181122,-13.944146 -0.787414,-2.45496 -2.066962,-4.32072 -3.740217,-5.4991 -1.722469,-1.17838 -4.724486,-1.96397 -9.055265,-2.35676 v -5.10631 z m 0,0"
       style="fill:#000000;fill-opacity:1;fill-rule:nonzero;stroke:none"
       aria-label="r"
       transform="matrix(0.02100096,0,0,0.02104984,127.17138,133.70081)"
       clip-path="url(#clipPath160)" />
    <path
       id="path294"
       d="m 27.774165,-181.07768 c 0.885841,-5.4991 2.411456,-9.47613 4.527632,-11.98018 2.066963,-2.45496 4.970553,-3.73154 8.661557,-3.73154 2.75595,0 5.019766,0.93289 6.889875,2.74955 1.968536,1.71847 2.952803,4.02613 2.952803,6.87388 0,1.47297 -0.29528,3.09324 -0.787414,4.90991 -0.393707,1.86577 -0.984268,3.63333 -1.771682,5.3027 l -25.787817,57.54416 h -4.724486 z m 0,0"
       style="fill:#000000;fill-opacity:1;fill-rule:nonzero;stroke:none"
       aria-label="!"
       transform="matrix(0.02100096,0,0,0.02104984,129.90004,133.36654)"
       clip-path="url(#clipPath158)" />
  </g>
</svg>
